# xmcd
#
# Track frame offsets: 
#        150
#        20660
#        40070
#        64952
#        87830
#        106602
#        125244
#        152401
#        175251
#        201343
#        225580
#
# Disc length: 3287 seconds
#
# Revision: 0
# Processed by: cddbd v1.5.2PL0 Copyright (c) Steve Scherf et al.
# Submitted via: ExactAudioCopy v0.99pb5
#
DISCID=8b0cd50b
DTITLE=Dan Truong and Cam Ly - Em La Hanh Phuc Doi Anh
DYEAR=2009
DGENRE=Pop
TTITLE0=Em La Hanh Phuc Doi Anh - Cam Ly
TTITLE1=Em Oi Dung Doi Thay - Dan Truong
TTITLE2=Thi Thoi Em Nhe - Dan Truong and Cam Ly
TTITLE3=Con Lai Day Minh Em - Cam Ly
TTITLE4=Nang Gio Tinh Ta - Dan Truong and Cam Ly
TTITLE5=I Love You (Nang Xuan Cua Toi) - Dan Truong
TTITLE6=Buon Hat Ly Cho Mong - Cam Ly
TTITLE7=Nguoi Hay Hua Voi Toi (Remix) - Dan Truong and Cam Ly
TTITLE8=Doi Cho Minh En - Dan Truong
TTITLE9=Ngay Mai Xa Cach - Dan Truong and Cam Ly
TTITLE10=Con Lai Day Minh Em (New Version) - Cam Ly
EXTD=
EXTT0=
EXTT1=
EXTT2=
EXTT3=
EXTT4=
EXTT5=
EXTT6=
EXTT7=
EXTT8=
EXTT9=
EXTT10=
PLAYORDER=
